<?xml version="1.0" encoding="utf-8"?>
<!-- Generator: Adobe Illustrator 22.1.0, SVG Export Plug-In . SVG Version: 6.00 Build 0)  -->
<svg version="1.1" id="Layer_1_1_" xmlns="http://www.w3.org/2000/svg" xmlns:xlink="http://www.w3.org/1999/xlink" x="0px" y="0px"
	 viewBox="0 0 512 512" style="enable-background:new 0 0 512 512;" xml:space="preserve">
<path d="M503.5,355.8h-4.8h-4.8H489h-4.8h-4.8h-4.8h-4.8H465h-4.8h-4.8h-4.8h-4.8h-4.8h-4.8h-4.8h-4.8h-4.8h-4.8H412h-4.8h-4.8h-4.8
	h-4.8h-4.8h-4.8h-4.8h-4.8h-4.8h-4.8h-4.8h-4.8h-4.8c0-0.2-0.1-1.2-0.1-1.4s-0.2-2.1-0.3-2.6s-0.4-2.8-0.5-3.3s-0.3-1.8-0.4-2.2
	s-0.6-2.8-0.7-3.2c-0.1-0.5-0.8-3.2-1-3.8c-0.2-0.6-0.9-3.1-1-3.3c-0.1-0.2-0.6-1.8-0.7-2l5.1-2.3l5.1-2.3l5.1-2.3l5.1-2.3l5.1-2.3
	l5.1-2.3l5.1-2.3l5.1-2.3l5.1-2.3l5.1-2.3l5.1-2.3l5.1-2.3l5.1-2.3l5.1-2.3l5.1-2.3l5.1-2.3l5.1-2.3l5.1-2.3l5.1-2.3l5.1-2.3
	l5.1-2.3l5.1-2.3l5.1-2.3l5.1-2.3l5.1-2.3l5.1-2.3l5.1-2.3l5.1-2.3l5.1-2.3l5.1-2.3l5.1-2.3l5.1-2.3l-0.4-1l-0.4-1l-0.4-1l-0.4-1
	l-0.4-1l-0.2-0.5l-0.4-1l-0.4-1l-0.4-1l-0.4-1l-0.4-1l-0.4-1l-0.2-0.5l-0.4-1l-0.4-1l-0.4-1l-0.4-1l-5.1,2.3l-5.1,2.3l-5.1,2.3
	l-5.1,2.3l-5.1,2.3l-5.1,2.3l-5.1,2.3l-5.1,2.3l-5.1,2.3l-5.1,2.3l-5.1,2.3l-5.1,2.3l-5.1,2.3l-5.1,2.3l-5.1,2.3l-5.1,2.3l-5.1,2.3
	l-5.1,2.3l-5.1,2.3l-5.1,2.3l-5.1,2.3l-5.1,2.3l-5.1,2.3l-5.1,2.3l-5.1,2.3l-5.1,2.3l-5.1,2.3l-5.1,2.3l-5.1,2.3l-5.1,2.3l-5.1,2.3
	l-5.1,2.3c-0.1-0.2-1.7-2.8-1.9-3.2c-0.2-0.4-1.5-2.3-1.8-2.8c-0.3-0.4-1.2-1.8-1.3-1.9c-0.1-0.2-1.2-1.7-1.4-1.9
	c-0.1-0.2-1.1-1.5-1.4-1.8c-0.3-0.4-1.3-1.7-1.4-1.8c-0.1-0.1-1.4-1.6-1.5-1.8l5.7-5.9l5.7-5.9l5.7-5.9l5.7-5.9l5.7-5.9l5.7-5.9
	l5.7-5.9l5.7-5.9l5.7-5.9l5.7-5.9l5.7-5.9l5.7-5.9l5.7-5.9l5.7-5.9l5.7-5.9l5.7-5.9l5.7-5.9l5.7-5.9l5.7-5.9l5.7-5.9l5.7-5.9
	l5.7-5.9l5.7-5.9l5.7-5.9l5.7-5.9l5.7-5.9l5.7-5.9l5.7-5.9l5.7-5.9l5.7-5.9l5.7-5.9l5.7-5.9l-1.5-1.5l-1.5-1.5l-1.5-1.5l-1.5-1.5
	l-1.5-1.5l-1.5-1.5l-1.5-1.5l-1.5-1.5l-5.7,5.9l-5.7,5.9l-5.7,5.9l-5.7,5.9l-5.7,5.9l-5.7,5.9l-5.7,5.9l-5.7,5.9l-5.7,5.9l-5.7,5.9
	l-5.7,5.9l-5.7,5.9l-5.7,5.9l-5.7,5.9l-5.7,5.9l-5.7,5.9l-5.7,5.9l-5.7,5.9l-5.7,5.9l-5.7,5.9l-5.7,5.9l-5.7,5.9l-5.7,5.9l-5.7,5.9
	l-5.7,5.9l-5.7,5.9l-5.7,5.9l-5.7,5.9l-5.7,5.9l-5.7,5.9l-5.7,5.9l-5.7,5.9c-0.1-0.1-2.4-1.9-2.7-2.1c-0.3-0.2-2.3-1.7-2.5-1.8
	c-0.1-0.1-2.5-1.7-2.9-1.9c-0.3-0.2-3-1.9-3.3-2.1c-0.3-0.2-2.8-1.6-3-1.7l3.4-8l3.4-8l3.4-8l3.4-8l3.4-8l3.4-8l3.4-8l3.4-8l3.4-8
	l3.4-8l3.4-8l3.4-8l3.4-8l3.4-8l3.4-8l3.4-8l3.4-8l3.4-8l3.4-8l3.4-8l3.4-8l3.4-8l3.4-8l3.4-8l3.4-8l3.4-8l3.4-8l3.4-8l3.4-8l3.4-8
	l3.4-8l3.4-8l-2-0.8l-2-0.8l-2-0.8l-2-0.8l-2-0.8l-2-0.8l-2-0.8l-2-0.8l-3.4,8l-3.4,8l-3.4,8l-3.4,8l-3.4,8l-3.4,8l-3.4,8l-3.4,8
	l-3.4,8l-3.4,8l-3.4,8l-3.4,8l-3.4,8l-3.4,8l-3.4,8l-3.4,8l-3.4,8l-3.4,8l-3.4,8l-3.4,8l-3.4,8l-3.4,8l-3.4,8l-3.4,8l-3.4,8l-3.4,8
	l-3.4,8l-3.4,8l-3.4,8l-3.4,8l-3.4,8l-3.4,8c-0.2-0.1-1.9-0.6-2.4-0.7c-0.5-0.1-3.5-1-3.7-1c-0.2-0.1-1.8-0.4-2.3-0.5
	c-0.4-0.1-3.8-0.8-4-0.8c-0.2,0-2.3-0.4-2.6-0.4c-0.2,0-2-0.3-2.6-0.3c-0.5-0.1-2.4-0.3-2.6-0.3v-7.7v-7.7v-7.7v-7.7v-7.7v-7.7v-7.7
	v-7.7v-7.7v-7.7v-7.7v-7.7v-7.7v-7.7v-7.7V147v-7.7v-7.7v-7.7V116v-7.7v-7.7v-7.7V85v-7.7v-7.7v-7.7V54v-7.7v-7.7v-7.7V23h-3.2h-2.1
	h-2.1h-2.1h-2.1h-2.1h-3.2v7.7v7.7v7.7V54v7.7v7.7v7.7V85v7.7v7.7v7.7v7.7v7.7v7.7v7.7v7.7v7.7v7.7v7.7v7.7v7.7v7.7v7.7v7.7v7.7v7.7
	v7.7v7.7v7.7v7.7v7.7v7.7c-0.2,0-2.1,0.2-2.6,0.3c-0.5,0.1-2.4,0.3-2.6,0.3c-0.2,0-2.3,0.4-2.6,0.4c-0.2,0-2,0.4-2.5,0.5
	c-0.5,0.1-2.3,0.5-2.5,0.5c-0.2,0-2,0.5-2.5,0.6c-0.5,0.1-2.3,0.6-2.5,0.7c-0.2,0.1-2.2,0.7-2.4,0.7l-3.4-8l-3.4-8l-3.4-8l-3.4-8
	l-3.4-8l-3.4-8l-3.4-8l-3.4-8l-3.4-8l-3.4-8l-3.4-8l-3.4-8l-3.4-8l-3.4-8l-3.4-8l-3.4-8l-3.4-8l-3.4-8l-3.4-8l-3.4-8l-3.4-8l-3.4-8
	l-3.4-8l-3.4-8l-3.4-8l-3.4-8l-3.4-8l-3.4-8l-3.4-8l-3.4-8l-3.4-8l-3.4-8l-2,0.8l-2,0.8l-2,0.8l-2,0.8l-2,0.8l-2,0.8l-2,0.8l-2,0.8
	l3.4,8l3.4,8l3.4,8l3.4,8l3.4,8l3.4,8l3.4,8l3.4,8l3.4,8l3.4,8l3.4,8l3.4,8l3.4,8l3.4,8l3.4,8l3.4,8l3.4,8l3.4,8l3.4,8l3.4,8l3.4,8
	l3.4,8l3.4,8l3.4,8l3.4,8l3.4,8l3.4,8l3.4,8l3.4,8l3.4,8l3.4,8l3.4,8c-0.2,0.1-1.5,0.8-1.9,1.1c-0.4,0.2-2.2,1.3-2.3,1.4
	s-1.8,1.1-2.1,1.3c-0.3,0.2-1.8,1.2-2.1,1.4c-0.3,0.2-1.1,0.8-1.4,1c-0.3,0.2-1.8,1.3-2.1,1.5c-0.3,0.2-2.3,1.7-2.4,1.9l-5.7-5.9
	l-5.7-5.9l-5.7-5.9l-5.7-5.9l-5.7-5.9l-5.7-5.9l-5.7-5.9l-5.7-5.9l-5.7-5.9l-5.7-5.9l-5.7-5.9l-5.7-5.9l-5.7-5.9l-5.7-5.9l-5.7-5.9
	l-5.7-5.9l-5.7-5.9l-5.7-5.9l-5.7-5.9l-5.7-5.9l-5.7-5.9l-5.7-5.9l-5.7-5.9l-5.7-5.9l-5.7-5.9l-5.7-5.9l-5.7-5.9l-5.7-5.9l-5.7-5.9
	l-5.7-5.9l-5.7-5.9l-5.7-5.9l-2.3,2.2l-1.5,1.5l-1.5,1.5l-1.5,1.5l-1.5,1.5L4.7,112l-2.3,2.2l5.7,5.9l5.7,5.9l5.7,5.9l5.7,5.9
	l5.7,5.9l5.7,5.9l5.7,5.9l5.7,5.9l5.7,5.9l5.7,5.9l5.7,5.9l5.7,5.9l5.7,5.9l5.7,5.9l5.7,5.9l5.7,5.9l5.7,5.9l5.7,5.9l5.7,5.9
	l5.7,5.9l5.7,5.9l5.7,5.9l5.7,5.9l5.7,5.9l5.7,5.9l5.7,5.9l5.7,5.9l5.7,5.9l5.7,5.9l5.7,5.9l5.7,5.9l5.7,5.9
	c-0.1,0.1-1.2,1.4-1.5,1.8c-0.3,0.4-2.6,3.3-2.9,3.7s-1.3,1.7-1.4,1.9c-0.1,0.2-1.2,1.8-1.3,1.9c-0.1,0.2-1.8,2.8-2,3.1
	c-0.2,0.4-1.6,2.7-1.7,2.8l-5.1-2.3l-5.1-2.3l-5.1-2.3l-5.1-2.3l-5.1-2.3l-5.1-2.3l-5.1-2.3l-5.1-2.3l-5.1-2.3l-5.1-2.3l-5.1-2.3
	l-5.1-2.3l-5.1-2.3l-5.1-2.3l-5.1-2.3l-5.1-2.3l-5.1-2.3l-5.1-2.3l-5.1-2.3l-5.1-2.3l-5.1-2.3l-5.1-2.3l-5.1-2.3l-5.1-2.3l-5.1-2.3
	l-5.1-2.3l-5.1-2.3l-5.1-2.3l-5.1-2.3l-5.1-2.3l-5.1-2.3l-5.1-2.3l-0.7,1.5l-0.4,1l-0.4,1l-0.4,1l-0.4,1l-0.4,1l-0.4,1l-0.4,1
	l-0.4,1l-0.4,1l-0.7,1.5l-0.4,1l-0.4,1l-0.4,1l-0.4,1l5.1,2.3l5.1,2.3l5.1,2.3l5.1,2.3l5.1,2.3l5.1,2.3l5.1,2.3l5.1,2.3l5.1,2.3
	l5.1,2.3l5.1,2.3l5.1,2.3l5.1,2.3L76,293l5.1,2.3l5.1,2.3l5.1,2.3l5.1,2.3l5.1,2.3l5.1,2.3l5.1,2.3l5.1,2.3l5.1,2.3l5.1,2.3l5.1,2.3
	l5.1,2.3l5.1,2.3l5.1,2.3l5.1,2.3l5.1,2.3l5.1,2.3l5.1,2.3c-0.1,0.2-0.6,1.7-0.7,2c-0.1,0.2-0.9,3.1-1,3.3s-0.6,2.1-0.7,2.7
	c-0.1,0.6-0.6,2.5-0.7,2.7s-0.4,2.2-0.5,2.8s-0.5,2.5-0.5,2.8c0,0.2-0.3,2.2-0.4,2.8s-0.3,2.6-0.3,2.8h-4.8h-4.8h-4.8h-4.8h-4.8
	h-4.8h-4.8h-4.8h-4.8h-4.8h-4.8h-4.8H100h-4.8h-4.8h-4.8h-4.8h-4.8h-4.8h-4.8h-4.8h-4.8h-4.8H47h-4.8h-4.8h-4.8h-4.8H23h-4.8h-4.8
	H8.5c-0.1,0-1.3,0.2-1.7,0.3c-0.3,0.1-2,0.6-2.2,0.7s-1.4,0.9-1.6,1.1c-0.2,0.2-0.8,0.7-0.9,0.9s-0.9,1.4-1.1,1.6s-0.4,0.9-0.5,1.2
	c-0.1,0.3-0.4,1.7-0.4,2s0,1.1,0,1.4s0.1,0.6,0.2,1s0.6,2,0.7,2.2s0.9,1.4,1.1,1.6s0.3,0.4,0.4,0.5c0.1,0.1,1,0.8,1.3,1
	s1.3,0.8,1.4,0.9c0.1,0.1,0.4,0.1,0.7,0.2s2.5,0.5,2.7,0.5H24h15.5h15.5h15.5h15.5h15.5h15.5h15.5h15.5h15.5h15.5h15.5h15.5h15.5
	h15.5H256h15.5h15.5h15.5h15.5h15.5h15.5h15.5h15.5h15.5h15.5h15.5h15.5h15.5h15.5H488h15.5c0.1,0,1.3-0.2,1.7-0.3
	c0.3-0.1,2-0.6,2.2-0.7s1.4-0.9,1.6-1.1c0.2-0.2,1.3-1.4,1.5-1.7s1-1.8,1-2.1c0.1-0.3,0.4-1.7,0.4-2s0-1.1,0-1.4
	c0-0.3-0.3-1.7-0.4-2c-0.1-0.3-0.9-1.8-1-2.1c-0.2-0.3-1.3-1.6-1.5-1.7c-0.2-0.2-1.4-0.9-1.6-1.1s-1.9-0.7-2.2-0.7
	C504.8,356,503.6,355.8,503.5,355.8z M256,287.5c2.5,0,4.9,0.1,7.3,0.3c2.4,0.2,4.8,0.6,7.1,1c2.3,0.4,4.6,1,6.9,1.7
	c2.3,0.7,4.5,1.4,6.6,2.3s4.3,1.8,6.4,2.8c2.1,1,4.1,2.2,6,3.4c2,1.2,3.9,2.5,5.7,3.9s3.6,2.8,5.3,4.4s3.3,3.1,4.9,4.8
	s3,3.4,4.4,5.2c1.4,1.8,2.7,3.7,4,5.6c1.2,1.9,2.4,3.9,3.5,6c1.1,2,2,4.2,2.9,6.3s1.7,4.4,2.4,6.6c0.7,2.2,1.3,4.5,1.8,6.9
	c0.5,2.3,0.9,4.7,1.1,7.1h-9.5h-9.5h-9.5h-9.5h-9.5h-9.5h-9.5H256h-9.5h-9.5h-9.5h-9.5h-9.5h-9.5h-9.5h-9.5c0.3-2.4,0.6-4.8,1.1-7.1
	c0.5-2.3,1.1-4.6,1.8-6.9c0.7-2.2,1.5-4.4,2.4-6.6s1.9-4.3,2.9-6.3s2.2-4,3.5-6c1.2-1.9,2.6-3.8,4-5.6c1.4-1.8,2.9-3.6,4.4-5.2
	c1.6-1.7,3.2-3.3,4.9-4.8s3.5-3,5.3-4.4s3.7-2.7,5.7-3.9s4-2.3,6-3.4c2.1-1,4.2-2,6.4-2.8s4.4-1.6,6.6-2.3c2.3-0.7,4.6-1.2,6.9-1.7
	c2.3-0.4,4.7-0.8,7.1-1C251.1,287.7,253.5,287.5,256,287.5z"/>
</svg>
